# Blender v2.92.0 OBJ File: 'Fish_Scene.blend'
# www.blender.org
mtllib MountainBackground.mtl
o Plane.017_Plane.012
v -0.430140 1.268124 -3.212403
v 1.122534 1.239903 -4.244967
v 1.896115 -0.953655 -3.256693
v 0.519884 -0.999610 -0.000000
v 1.167102 -0.972214 -2.262875
v 0.646469 -0.994148 -1.177415
v -0.920179 0.409878 0.021918
v -0.809941 0.786130 -1.649631
v -0.430140 0.056357 3.212403
v 1.167102 -0.972214 2.262874
v 0.646469 -0.994148 1.177415
v -0.852909 0.009648 1.694284
v -0.491639 0.408885 0.018616
v -0.107086 -0.172946 -0.000000
v -0.360715 0.792670 -1.590894
v 0.098152 0.153362 -1.533606
v 0.089936 1.300311 -3.108578
v 0.488801 0.921132 -2.688892
v 0.637280 1.224074 -3.361493
v 0.098152 -0.347940 1.533606
v -0.411875 -0.037078 1.629386
v 0.488801 -0.407730 2.688892
v 0.089936 -0.133415 3.108578
vt 1.000000 0.500000
vt 1.000000 0.389533
vt 1.000000 0.000000
vt 1.000000 0.000000
vt 1.000000 0.500000
vt 0.000000 0.000000
vt 0.000000 0.000000
vt 0.000000 0.000000
vt 0.000000 0.000000
vt 0.000000 0.000000
vt 0.000000 0.000000
vt 1.000000 0.000000
vt 1.000000 0.378942
vt 1.000000 0.365300
vt 1.000000 0.000000
vt 0.000000 0.000000
vt 0.000000 0.000000
vt 0.000000 0.000000
vt 0.000000 0.000000
vt 1.000000 0.000000
vt 1.000000 0.378942
vt 1.000000 0.000000
vt 1.000000 0.389533
vt 0.000000 0.000000
vt 0.000000 0.000000
vt 0.000000 0.000000
vt 0.000000 0.000000
vt 0.000000 0.000000
vt 0.000000 0.000000
vn 0.6655 0.5735 0.4777
vn 0.6374 0.5981 0.4859
vn 0.7697 0.4364 0.4659
vn 0.7670 0.4415 0.4656
vn -0.0857 0.9551 0.2837
vn -0.0525 0.9658 0.2537
vn 0.3144 0.8855 0.3421
vn 0.2262 0.8822 0.4130
vn 0.0266 0.9715 0.2355
vn 0.4176 0.8831 0.2140
vn 0.8164 0.4897 0.3062
vn 0.7607 0.5445 0.3534
vn 0.7851 0.6106 0.1035
vn 0.8103 0.5833 0.0560
vn 0.2295 0.9718 -0.0547
vn 0.3507 0.9328 -0.0827
vn 0.3846 0.9221 0.0428
vn 0.1520 0.9834 0.0993
vn 0.7067 0.6948 -0.1338
vn 0.6454 0.7587 -0.0890
vn 0.6040 0.7623 -0.2327
vn 0.5402 0.8252 -0.1647
usemtl None
s 1
f 19/1/1 18/2/2 5/3/3 3/4/4 2/5/4
f 1/6/5 8/7/6 15/8/7 17/9/8
f 8/7/6 7/10/9 13/11/10 15/8/7
f 6/12/11 16/13/12 14/14/13 4/15/14
f 5/3/3 18/2/2 16/13/12 6/12/11
f 9/16/15 23/17/16 21/18/17 12/19/18
f 12/19/18 21/18/17 13/11/10 7/10/9
f 11/20/19 4/15/14 14/14/13 20/21/20
f 10/22/21 11/20/19 20/21/20 22/23/22
f 17/9/8 18/24/2 19/25/1
f 17/9/8 15/8/7 16/26/12 18/24/2
f 15/8/7 13/11/10 14/27/13 16/26/12
f 22/28/22 20/29/20 21/18/17 23/17/16
f 20/29/20 14/27/13 13/11/10 21/18/17
