# Blender v2.91.2 OBJ File: 'Asset_Modular_Environment.blend'
# www.blender.org
mtllib lilypad_separate.mtl
o Grid.006_Grid.005
v 0.110611 -0.001325 0.491214
v 0.432065 -0.012717 0.278295
v 0.141832 0.027357 0.187321
v 0.516649 -0.003263 0.120062
v 0.160190 -0.003676 -0.094026
v 0.557837 -0.007821 -0.145164
v 0.154943 0.000966 -0.383428
v 0.534198 -0.005842 -0.429106
v 0.089078 -0.017291 -0.678635
v 0.392756 -0.021440 -0.614657
v 0.298738 -0.003460 0.398176
v 0.323829 0.014491 0.140934
v 0.346294 0.018831 -0.140354
v 0.332450 0.004406 -0.424239
v 0.231407 -0.028137 -0.692813
v -0.038832 0.005505 0.515340
v -0.186418 -0.001325 0.481673
v -0.493547 -0.012717 0.248566
v -0.029322 0.024979 0.219253
v -0.198074 0.027357 0.176404
v -0.567802 -0.003263 0.085231
v -0.021214 0.006998 -0.033174
v -0.198340 -0.003676 -0.105541
v -0.591885 -0.007821 -0.182091
v -0.012531 0.027554 -0.303518
v -0.174532 0.000966 -0.394010
v -0.550075 -0.005842 -0.463931
v -0.005452 0.003804 -0.523933
v -0.089859 -0.017291 -0.684382
v -0.397017 -0.021440 -0.640024
v -0.368187 -0.003460 0.376755
v -0.376719 0.014491 0.118433
v -0.381087 0.018831 -0.163717
v -0.349054 0.004406 -0.446128
v -0.230985 -0.028137 -0.707665
v -0.033910 0.014732 0.362097
v 0.030749 -0.001836 0.511422
v 0.127287 0.017946 0.336826
v 0.055279 0.035205 0.210411
v 0.373564 -0.015381 0.340087
v 0.479497 -0.008928 0.209624
v 0.231249 0.017411 0.161924
v -0.025243 0.007265 0.092266
v 0.152638 0.012757 0.045518
v 0.069309 -0.000390 -0.053269
v 0.542787 0.006851 -0.001799
v 0.251076 0.016072 -0.124324
v -0.016829 0.021916 -0.169707
v 0.163670 0.011763 -0.237199
v 0.070334 0.017343 -0.331700
v 0.559274 -0.006797 -0.293452
v 0.241255 -0.002255 -0.413494
v -0.008805 0.017719 -0.419513
v 0.127553 -0.016524 -0.530815
v 0.036502 -0.003546 -0.583422
v 0.473397 -0.013805 -0.537202
v 0.155612 -0.025070 -0.709853
v 0.205427 -0.000417 0.451172
v 0.419413 -0.002402 0.128044
v 0.449607 0.003955 -0.145571
v 0.431107 -0.004843 -0.427946
v 0.310860 -0.031699 -0.662361
v 0.289732 -0.006766 -0.559973
v 0.348660 -0.008241 -0.283699
v 0.336421 0.029004 0.002577
v 0.311158 -0.006878 0.271798
v -0.108018 -0.001836 0.506965
v -0.193153 0.017946 0.326534
v -0.113181 0.035205 0.205001
v -0.439131 -0.015381 0.313984
v -0.536474 -0.008928 0.176992
v -0.285677 0.017411 0.145321
v -0.199757 0.012757 0.034199
v -0.110261 -0.000390 -0.059037
v -0.586066 0.006851 -0.038056
v -0.287094 0.016072 -0.141609
v -0.192625 0.011763 -0.248643
v -0.093417 0.017343 -0.336959
v -0.583804 -0.006797 -0.330166
v -0.258737 -0.002255 -0.429553
v -0.137740 -0.016524 -0.539336
v -0.043501 -0.003546 -0.585992
v -0.482461 -0.013805 -0.567903
v -0.154252 -0.025070 -0.719806
v -0.278469 -0.000417 0.435630
v -0.471279 -0.002402 0.099436
v -0.483853 0.003955 -0.175553
v -0.447270 -0.004843 -0.456158
v -0.312228 -0.031699 -0.682374
v -0.297714 -0.006766 -0.578841
v -0.374249 -0.008241 -0.306918
v -0.380406 0.029004 -0.020446
v -0.372472 -0.006878 0.249841
v 0.043954 0.022187 0.356593
v 0.397626 -0.005877 0.239790
v 0.063412 0.015574 0.077543
v 0.437469 0.012447 -0.002638
v 0.073223 0.014663 -0.192516
v 0.451481 -0.004001 -0.290624
v 0.056641 -0.006061 -0.460889
v 0.379953 -0.006474 -0.550407
v 0.205296 -0.019911 -0.561050
v 0.254012 0.013922 -0.268084
v 0.242463 0.015606 0.018669
v 0.218654 0.009436 0.306216
v -0.111260 0.022187 0.351608
v -0.456707 -0.005877 0.212350
v -0.112771 0.015574 0.071884
v -0.480912 0.012447 -0.032136
v -0.105232 0.014663 -0.198248
v -0.476415 -0.004001 -0.320427
v -0.071462 -0.006061 -0.465003
v -0.388363 -0.006474 -0.575084
v -0.213383 -0.019911 -0.574497
v -0.280799 0.013922 -0.285262
v -0.287675 0.015606 0.001642
v -0.282367 0.009436 0.290124
vt 0.498047 0.045067
vt 0.548279 0.049510
vt 0.554214 0.161989
vt 0.498047 0.156210
vt 0.605574 0.065952
vt 0.614006 0.178189
vt 0.621049 0.286788
vt 0.559009 0.268116
vt 0.498047 0.259769
vt 0.739534 0.137495
vt 0.792953 0.180959
vt 0.807536 0.254321
vt 0.745514 0.229343
vt 0.837940 0.225407
vt 0.866721 0.277681
vt 0.891076 0.343505
vt 0.820668 0.335720
vt 0.751647 0.324377
vt 0.561839 0.364458
vt 0.498047 0.351767
vt 0.625639 0.389640
vt 0.628015 0.490764
vt 0.563147 0.459262
vt 0.498047 0.442653
vt 0.830877 0.430624
vt 0.757682 0.424722
vt 0.907382 0.432208
vt 0.915223 0.536223
vt 0.836609 0.534228
vt 0.761753 0.528267
vt 0.562890 0.560220
vt 0.498047 0.541682
vt 0.627466 0.594494
vt 0.618170 0.700308
vt 0.557808 0.661136
vt 0.498047 0.638909
vt 0.834919 0.639168
vt 0.760466 0.631978
vt 0.913125 0.643529
vt 0.892153 0.741173
vt 0.817379 0.738129
vt 0.745921 0.733385
vt 0.545257 0.754763
vt 0.498047 0.723423
vt 0.595534 0.806729
vt 0.564976 0.913324
vt 0.528263 0.843535
vt 0.498047 0.799662
vt 0.777964 0.826134
vt 0.712456 0.830930
vt 0.845781 0.820070
vt 0.784574 0.887543
vt 0.725726 0.907497
vt 0.667850 0.926158
vt 0.680088 0.723778
vt 0.651307 0.830078
vt 0.612678 0.937095
vt 0.693121 0.514646
vt 0.692223 0.618718
vt 0.685116 0.307168
vt 0.690002 0.411052
vt 0.673238 0.097063
vt 0.679366 0.202396
vt 0.441880 0.161989
vt 0.447815 0.049510
vt 0.437085 0.268116
vt 0.375045 0.286788
vt 0.382088 0.178189
vt 0.390520 0.065952
vt 0.256560 0.137495
vt 0.250580 0.229343
vt 0.188558 0.254321
vt 0.203141 0.180959
vt 0.244447 0.324377
vt 0.175426 0.335720
vt 0.105018 0.343505
vt 0.129373 0.277680
vt 0.158154 0.225407
vt 0.434255 0.364458
vt 0.432947 0.459262
vt 0.368079 0.490764
vt 0.370455 0.389640
vt 0.238412 0.424722
vt 0.165216 0.430624
vt 0.234341 0.528267
vt 0.159484 0.534228
vt 0.080871 0.536223
vt 0.088712 0.432207
vt 0.433204 0.560220
vt 0.438286 0.661136
vt 0.377924 0.700308
vt 0.368628 0.594494
vt 0.235628 0.631978
vt 0.161175 0.639168
vt 0.250173 0.733385
vt 0.178714 0.738129
vt 0.103941 0.741172
vt 0.082969 0.643529
vt 0.450837 0.754763
vt 0.467831 0.843535
vt 0.431118 0.913324
vt 0.400560 0.806729
vt 0.283638 0.830930
vt 0.218130 0.826134
vt 0.328243 0.926158
vt 0.270368 0.907497
vt 0.211520 0.887543
vt 0.150312 0.820070
vt 0.344787 0.830078
vt 0.316006 0.723777
vt 0.383415 0.937095
vt 0.303871 0.618718
vt 0.302972 0.514646
vt 0.306092 0.411052
vt 0.310978 0.307168
vt 0.316728 0.202395
vt 0.322856 0.097063
vn -0.0034 0.9942 0.1073
vn 0.0280 0.9920 0.1230
vn 0.0093 0.9944 0.1047
vn -0.0030 0.9956 0.0936
vn 0.0658 0.9893 0.1299
vn 0.0871 0.9912 0.0995
vn 0.0671 0.9977 -0.0103
vn -0.0248 0.9994 -0.0231
vn 0.0008 0.9997 -0.0239
vn 0.1118 0.9930 0.0366
vn 0.0876 0.9947 0.0534
vn 0.0840 0.9921 0.0927
vn 0.1151 0.9903 0.0781
vn 0.0745 0.9912 0.1095
vn 0.0422 0.9969 0.0666
vn 0.0347 0.9957 0.0862
vn 0.0922 0.9908 0.0992
vn 0.0848 0.9916 0.0970
vn -0.0279 0.9934 -0.1109
vn 0.0035 0.9941 -0.1084
vn -0.0217 0.9957 -0.0897
vn -0.0400 0.9992 0.0031
vn 0.0378 0.9993 -0.0006
vn -0.0003 0.9999 0.0087
vn 0.1095 0.9937 0.0248
vn 0.0468 0.9987 0.0195
vn 0.0608 0.9981 0.0072
vn 0.0739 0.9962 -0.0468
vn 0.0836 0.9941 -0.0682
vn 0.0551 0.9953 -0.0792
vn 0.0979 0.9933 0.0617
vn -0.0024 0.9972 0.0746
vn 0.0062 1.0000 0.0036
vn 0.0232 0.9940 -0.1062
vn 0.1078 0.9915 -0.0718
vn 0.0013 0.9992 -0.0391
vn 0.0389 0.9989 -0.0258
vn 0.0579 0.9971 -0.0486
vn 0.0435 0.9990 -0.0131
vn 0.0287 0.9992 -0.0259
vn 0.0352 0.9991 -0.0231
vn 0.0154 0.9994 -0.0308
vn 0.1392 0.9847 -0.1044
vn 0.0040 0.9923 -0.1238
vn 0.0734 0.9945 -0.0750
vn 0.0902 0.9953 -0.0349
vn 0.1722 0.9843 -0.0367
vn 0.0023 0.9973 -0.0740
vn 0.0555 0.9882 -0.1427
vn -0.0120 0.9926 -0.1209
vn 0.0490 0.9940 -0.0981
vn 0.0585 0.9748 -0.2154
vn 0.0690 0.9728 -0.2210
vn -0.0205 0.9933 -0.1137
vn -0.0171 0.9971 -0.0743
vn -0.0256 0.9969 -0.0735
vn 0.0131 0.9985 -0.0526
vn -0.0672 0.9972 -0.0324
vn 0.0149 0.9986 -0.0504
vn 0.0625 0.9972 0.0400
vn -0.0731 0.9969 -0.0269
vn 0.0928 0.9922 0.0822
vn 0.1166 0.9904 0.0739
vn -0.0160 0.9944 0.1039
vn -0.0358 0.9920 0.1210
vn 0.0263 0.9994 -0.0215
vn -0.0663 0.9977 -0.0146
vn -0.0933 0.9912 0.0937
vn -0.0740 0.9893 0.1254
vn -0.1139 0.9930 0.0293
vn -0.1199 0.9903 0.0705
vn -0.0898 0.9921 0.0871
vn -0.0909 0.9947 0.0476
vn -0.0908 0.9916 0.0914
vn -0.0984 0.9908 0.0931
vn -0.0402 0.9957 0.0838
vn -0.0464 0.9969 0.0638
vn -0.0813 0.9912 0.1045
vn 0.0350 0.9934 -0.1089
vn -0.0377 0.9993 -0.0031
vn 0.0397 0.9992 0.0056
vn 0.0274 0.9957 -0.0882
vn -0.0480 0.9987 0.0164
vn -0.1108 0.9937 0.0177
vn -0.0500 0.9953 -0.0826
vn -0.0790 0.9941 -0.0735
vn -0.0707 0.9962 -0.0515
vn -0.0612 0.9981 0.0033
vn -0.1017 0.9933 0.0553
vn -0.1029 0.9915 -0.0786
vn -0.0164 0.9940 -0.1075
vn -0.0064 1.0000 0.0032
vn -0.0547 0.9971 -0.0523
vn -0.0372 0.9989 -0.0283
vn -0.0134 0.9994 -0.0317
vn -0.0337 0.9991 -0.0253
vn -0.0270 0.9992 -0.0277
vn -0.0426 0.9990 -0.0159
vn -0.1322 0.9847 -0.1131
vn -0.1696 0.9843 -0.0477
vn -0.0877 0.9953 -0.0406
vn -0.0685 0.9945 -0.0795
vn 0.0197 0.9926 -0.1199
vn -0.0462 0.9882 -0.1460
vn 0.0278 0.9933 -0.1121
vn -0.0547 0.9728 -0.2250
vn -0.0446 0.9748 -0.2187
vn -0.0426 0.9940 -0.1010
vn 0.0303 0.9969 -0.0717
vn 0.0219 0.9971 -0.0730
vn -0.0097 0.9985 -0.0533
vn -0.0116 0.9986 -0.0513
vn 0.0691 0.9972 -0.0280
vn 0.0747 0.9969 -0.0222
vn -0.0650 0.9972 0.0360
vn -0.1211 0.9904 0.0662
vn -0.0979 0.9922 0.0761
usemtl Lily_Pad
s 1
f 16/1/1 37/2/2 94/3/3 36/4/4
f 37/2/2 1/5/5 38/6/6 94/3/3
f 94/3/3 38/6/6 3/7/7 39/8/8
f 36/4/4 94/3/3 39/8/8 19/9/9
f 11/10/10 40/11/11 95/12/12 66/13/13
f 40/11/11 2/14/14 41/15/15 95/12/12
f 95/12/12 41/15/15 4/16/16 59/17/17
f 66/13/13 95/12/12 59/17/17 12/18/18
f 19/9/9 39/8/8 96/19/19 43/20/20
f 39/8/8 3/7/7 44/21/21 96/19/19
f 96/19/19 44/21/21 5/22/22 45/23/23
f 43/20/20 96/19/19 45/23/23 22/24/24
f 12/18/18 59/17/17 97/25/25 65/26/26
f 59/17/17 4/16/16 46/27/27 97/25/25
f 97/25/25 46/27/27 6/28/28 60/29/29
f 65/26/26 97/25/25 60/29/29 13/30/30
f 22/24/24 45/23/23 98/31/31 48/32/32
f 45/23/23 5/22/22 49/33/33 98/31/31
f 98/31/31 49/33/33 7/34/34 50/35/35
f 48/32/32 98/31/31 50/35/35 25/36/36
f 13/30/30 60/29/29 99/37/37 64/38/38
f 60/29/29 6/28/28 51/39/39 99/37/37
f 99/37/37 51/39/39 8/40/40 61/41/41
f 64/38/38 99/37/37 61/41/41 14/42/42
f 25/36/36 50/35/35 100/43/43 53/44/44
f 50/35/35 7/34/34 54/45/45 100/43/43
f 100/43/43 54/45/45 9/46/46 55/47/47
f 53/44/44 100/43/43 55/47/47 28/48/48
f 14/42/42 61/41/41 101/49/49 63/50/50
f 61/41/41 8/40/40 56/51/51 101/49/49
f 101/49/49 56/51/51 10/52/52 62/53/53
f 63/50/50 101/49/49 62/53/53 15/54/54
f 7/34/34 52/55/55 102/56/56 54/45/45
f 52/55/55 14/42/42 63/50/50 102/56/56
f 102/56/56 63/50/50 15/54/54 57/57/57
f 54/45/45 102/56/56 57/57/57 9/46/46
f 5/22/22 47/58/58 103/59/59 49/33/33
f 47/58/58 13/30/30 64/38/38 103/59/59
f 103/59/59 64/38/38 14/42/42 52/55/55
f 49/33/33 103/59/59 52/55/55 7/34/34
f 3/7/7 42/60/60 104/61/61 44/21/21
f 42/60/60 12/18/18 65/26/26 104/61/61
f 104/61/61 65/26/26 13/30/30 47/58/58
f 44/21/21 104/61/61 47/58/58 5/22/22
f 1/5/5 58/62/62 105/63/63 38/6/6
f 58/62/62 11/10/10 66/13/13 105/63/63
f 105/63/63 66/13/13 12/18/18 42/60/60
f 38/6/6 105/63/63 42/60/60 3/7/7
f 16/1/1 36/4/4 106/64/64 67/65/65
f 36/4/4 19/9/9 69/66/66 106/64/64
f 106/64/64 69/66/66 20/67/67 68/68/68
f 67/65/65 106/64/64 68/68/68 17/69/69
f 31/70/70 93/71/71 107/72/72 70/73/73
f 93/71/71 32/74/74 86/75/75 107/72/72
f 107/72/72 86/75/75 21/76/76 71/77/77
f 70/73/73 107/72/72 71/77/77 18/78/78
f 19/9/9 43/20/20 108/79/79 69/66/66
f 43/20/20 22/24/24 74/80/80 108/79/79
f 108/79/79 74/80/80 23/81/81 73/82/82
f 69/66/66 108/79/79 73/82/82 20/67/67
f 32/74/74 92/83/83 109/84/84 86/75/75
f 92/83/83 33/85/85 87/86/86 109/84/84
f 109/84/84 87/86/86 24/87/87 75/88/88
f 86/75/75 109/84/84 75/88/88 21/76/76
f 22/24/24 48/32/32 110/89/89 74/80/80
f 48/32/32 25/36/36 78/90/90 110/89/89
f 110/89/89 78/90/90 26/91/91 77/92/92
f 74/80/80 110/89/89 77/92/92 23/81/81
f 33/85/85 91/93/93 111/94/94 87/86/86
f 91/93/93 34/95/95 88/96/96 111/94/94
f 111/94/94 88/96/96 27/97/97 79/98/98
f 87/86/86 111/94/94 79/98/98 24/87/87
f 25/36/36 53/44/44 112/99/99 78/90/90
f 53/44/44 28/48/48 82/100/100 112/99/99
f 112/99/99 82/100/100 29/101/101 81/102/102
f 78/90/90 112/99/99 81/102/102 26/91/91
f 34/95/95 90/103/103 113/104/104 88/96/96
f 90/103/103 35/105/105 89/106/106 113/104/104
f 113/104/104 89/106/106 30/107/107 83/108/108
f 88/96/96 113/104/104 83/108/108 27/97/97
f 26/91/91 81/102/102 114/109/109 80/110/110
f 81/102/102 29/101/101 84/111/111 114/109/109
f 114/109/109 84/111/111 35/105/105 90/103/103
f 80/110/110 114/109/109 90/103/103 34/95/95
f 23/81/81 77/92/92 115/112/112 76/113/113
f 77/92/92 26/91/91 80/110/110 115/112/112
f 115/112/112 80/110/110 34/95/95 91/93/93
f 76/113/113 115/112/112 91/93/93 33/85/85
f 20/67/67 73/82/82 116/114/114 72/115/115
f 73/82/82 23/81/81 76/113/113 116/114/114
f 116/114/114 76/113/113 33/85/85 92/83/83
f 72/115/115 116/114/114 92/83/83 32/74/74
f 17/69/69 68/68/68 117/116/116 85/117/117
f 68/68/68 20/67/67 72/115/115 117/116/116
f 117/116/116 72/115/115 32/74/74 93/71/71
f 85/117/117 117/116/116 93/71/71 31/70/70
