# Blender v2.91.2 OBJ File: 'Asset_Modular_Environment.blend'
# www.blender.org
mtllib tree_brown.mtl
o Root_Cylinder.001
v -98.500198 -0.001481 -13.992135
v -101.195244 36.904526 -12.445182
v -99.313446 -0.001482 -11.775193
v -100.900711 36.904526 -11.570291
v -97.963860 -0.001481 -9.837458
v -100.963402 36.904526 -10.649279
v -100.106529 -0.001482 -8.844898
v -101.373779 36.904526 -9.822372
v -100.522408 -0.001481 -6.520408
v -102.069366 36.904526 -9.215452
v -102.739357 -0.001482 -7.333658
v -102.944260 36.904526 -8.920919
v -104.677086 -0.001481 -5.984066
v -103.865265 36.904526 -8.983612
v -105.669647 -0.001482 -8.126736
v -104.692177 36.904526 -9.393991
v -107.994141 -0.001481 -8.542617
v -105.299095 36.904526 -10.089573
v -107.180893 -0.001482 -10.759559
v -105.593628 36.904526 -10.964464
v -108.530479 -0.001481 -12.697294
v -105.530937 36.904526 -11.885475
v -106.387810 -0.001482 -13.689854
v -105.120560 36.904526 -12.712382
v -105.971931 -0.001481 -16.014345
v -104.424973 36.904526 -13.319298
v -103.754982 -0.001482 -15.201096
v -103.550079 36.904526 -13.613835
v -101.817253 -0.001481 -16.550686
v -102.629074 36.904526 -13.551144
v -100.824692 -0.001482 -14.408016
v -101.802162 36.904526 -13.140763
v -100.696281 6.723451 -12.731586
v -100.330124 6.723451 -11.643947
v -100.408066 6.723451 -10.498980
v -100.918236 6.723451 -9.470992
v -101.782959 6.723451 -8.716490
v -102.870598 6.723451 -8.350334
v -104.015572 6.723451 -8.428276
v -105.043556 6.723451 -8.938440
v -105.798058 6.723451 -9.803168
v -106.164215 6.723451 -10.890807
v -106.086273 6.723451 -12.035774
v -105.576103 6.723451 -13.063763
v -104.711380 6.723451 -13.818267
v -103.623741 6.723451 -14.184420
v -102.478767 6.723451 -14.106480
v -101.450783 6.723451 -13.596313
v -99.561691 2.487084 -11.743147
v -98.949005 2.487084 -10.104086
v -100.304726 2.487084 -8.997772
v -101.030479 2.487084 -7.405542
v -102.771400 2.487084 -7.581900
v -104.410461 2.487084 -6.969209
v -105.516777 2.487084 -8.324930
v -107.109009 2.487084 -9.050684
v -106.932648 2.487084 -10.791607
v -107.545341 2.487084 -12.430668
v -106.189613 2.487083 -13.536982
v -105.463867 2.487084 -15.129214
v -103.722939 2.487084 -14.952854
v -102.083878 2.487084 -15.565546
v -100.977562 2.487083 -14.209824
v -99.385330 2.487084 -13.484070
v -100.305893 4.605268 -12.955670
v -100.218842 4.605267 -11.658314
v -99.973564 4.605268 -10.381383
v -100.829384 4.605268 -9.402458
v -101.558876 4.605268 -8.326098
v -102.856232 4.605268 -8.239046
v -104.133163 4.605268 -7.993775
v -105.112091 4.605267 -8.849588
v -106.188446 4.605268 -9.579083
v -106.275505 4.605267 -10.876440
v -106.520775 4.605267 -12.153371
v -105.664955 4.605267 -13.132297
v -104.935463 4.605268 -14.208658
v -103.638107 4.605267 -14.295709
v -102.361176 4.605267 -14.540979
v -101.382248 4.605267 -13.685165
v -99.223427 1.242801 -11.786815
v -98.209595 1.242802 -9.903966
v -100.034653 1.242801 -8.789457
v -100.649147 1.242802 -6.741197
v -102.727730 1.242801 -7.243631
v -104.610580 1.242802 -6.229802
v -105.725090 1.242801 -8.054860
v -107.773346 1.242802 -8.669350
v -107.270912 1.242801 -10.747937
v -108.284744 1.242802 -12.630786
v -106.459686 1.242801 -13.745295
v -105.845200 1.242802 -15.793557
v -103.766609 1.242801 -15.291121
v -101.883759 1.242802 -16.304951
v -100.769249 1.242801 -14.479893
v -98.720985 1.242802 -13.865403
vt 0.971389 0.288309
vt 0.974124 0.974703
vt 0.950065 0.974703
vt 0.947329 0.288309
vt 0.928289 0.974703
vt 0.925553 0.288309
vt 0.900556 0.974703
vt 0.897821 0.288309
vt 0.873995 0.974703
vt 0.871259 0.288309
vt 0.839800 0.974703
vt 0.837064 0.288309
vt 0.805739 0.974703
vt 0.803003 0.288309
vt 0.769741 0.974703
vt 0.767005 0.288309
vt 0.735822 0.974703
vt 0.733086 0.288309
vt 0.700116 0.974703
vt 0.697380 0.288309
vt 0.664051 0.974703
vt 0.661316 0.288309
vt 0.626952 0.974703
vt 0.624216 0.288309
vt 0.594109 0.974703
vt 0.591373 0.288309
vt 0.557998 0.974703
vt 0.555262 0.288309
vt 0.522829 0.974703
vt 0.520093 0.288309
vt 0.488331 0.974703
vt 0.485595 0.288309
vt 0.456577 0.974703
vt 0.448680 0.288309
vt 0.197428 0.118342
vt 0.193748 0.118342
vt 0.189567 0.094094
vt 0.198805 0.090305
vt 0.198805 0.146310
vt 0.189553 0.142547
vt 0.178474 0.165454
vt 0.175883 0.162892
vt 0.159667 0.185776
vt 0.155821 0.176561
vt 0.131915 0.184864
vt 0.131894 0.181206
vt 0.103938 0.186103
vt 0.107741 0.176886
vt 0.085059 0.165409
vt 0.087669 0.162810
vt 0.064269 0.146417
vt 0.073516 0.142593
vt 0.065608 0.118295
vt 0.069299 0.118297
vt 0.064306 0.090192
vt 0.073531 0.094017
vt 0.085064 0.071250
vt 0.087655 0.073854
vt 0.103970 0.050785
vt 0.107835 0.060009
vt 0.131655 0.051667
vt 0.131660 0.055308
vt 0.159508 0.050658
vt 0.155682 0.059845
vt 0.178241 0.071218
vt 0.175635 0.073790
vt 0.231104 0.077028
vt 0.219394 0.081833
vt 0.188670 0.060921
vt 0.194016 0.055622
vt 0.168044 0.030140
vt 0.172902 0.018480
vt 0.131668 0.037128
vt 0.131676 0.029630
vt 0.095403 0.030163
vt 0.090564 0.018498
vt 0.074674 0.060872
vt 0.069343 0.055542
vt 0.043724 0.081632
vt 0.032003 0.076748
vt 0.050810 0.118284
vt 0.043229 0.118276
vt 0.043622 0.154963
vt 0.031863 0.159829
vt 0.074604 0.175837
vt 0.069252 0.181192
vt 0.095474 0.206695
vt 0.090655 0.218421
vt 0.131942 0.199483
vt 0.131962 0.207003
vt 0.168287 0.206346
vt 0.173169 0.217983
vt 0.188827 0.175667
vt 0.194159 0.180938
vt 0.219415 0.154751
vt 0.231113 0.159534
vt 0.212172 0.118327
vt 0.219717 0.118320
vt 0.221986 0.118319
vt 0.235396 0.075267
vt 0.235396 0.161285
vt 0.195764 0.182527
vt 0.174954 0.222238
vt 0.131970 0.209268
vt 0.088886 0.222723
vt 0.067643 0.182804
vt 0.027549 0.161614
vt 0.040948 0.118273
vt 0.027704 0.074957
vt 0.067740 0.053935
vt 0.088795 0.014234
vt 0.131677 0.027372
vt 0.174683 0.014208
vt 0.195624 0.054026
vn 0.8648 0.0759 -0.4964
vn 0.8671 0.0190 -0.4977
vn 0.9916 0.0190 -0.1280
vn 0.9891 0.0734 -0.1277
vn 0.9651 0.0190 0.2612
vn 0.9625 0.0759 0.2605
vn 0.7917 0.0190 0.6106
vn 0.7897 0.0734 0.6091
vn 0.4977 0.0190 0.8671
vn 0.4964 0.0759 0.8648
vn 0.1280 0.0190 0.9916
vn 0.1277 0.0734 0.9891
vn -0.2612 0.0190 0.9651
vn -0.2605 0.0759 0.9625
vn -0.6106 0.0190 0.7917
vn -0.6091 0.0734 0.7897
vn -0.8671 0.0190 0.4977
vn -0.8648 0.0759 0.4964
vn -0.9916 0.0190 0.1280
vn -0.9891 0.0734 0.1277
vn -0.9651 0.0190 -0.2612
vn -0.9625 0.0759 -0.2605
vn -0.7917 0.0190 -0.6106
vn -0.7897 0.0734 -0.6091
vn -0.4977 0.0190 -0.8671
vn -0.4964 0.0759 -0.8648
vn -0.1280 0.0190 -0.9916
vn -0.1277 0.0734 -0.9891
vn 0.2612 0.0190 -0.9651
vn 0.2605 0.0759 -0.9625
vn 0.6106 0.0190 -0.7917
vn 0.6091 0.0734 -0.7897
vn 0.5932 0.2379 -0.7691
vn 0.8342 0.2736 -0.4788
vn 0.2513 0.2736 -0.9284
vn -0.1243 0.2379 -0.9633
vn -0.4788 0.2736 -0.8342
vn -0.7691 0.2379 -0.5932
vn -0.9284 0.2736 -0.2513
vn -0.9633 0.2379 0.1243
vn -0.8342 0.2736 0.4788
vn -0.5932 0.2379 0.7691
vn -0.2513 0.2736 0.9284
vn 0.1243 0.2379 0.9633
vn 0.4788 0.2736 0.8342
vn 0.7691 0.2379 0.5932
vn 0.9284 0.2736 0.2513
vn 0.9633 0.2379 -0.1243
vn 0.8444 0.2282 -0.4847
vn 0.7885 0.4164 -0.4526
vn 0.9276 0.3537 -0.1197
vn 0.9697 0.2098 -0.1252
vn 0.8776 0.4164 0.2375
vn 0.9398 0.2282 0.2543
vn 0.7406 0.3537 0.5712
vn 0.7742 0.2098 0.5972
vn 0.4526 0.4164 0.7885
vn 0.4847 0.2283 0.8444
vn 0.1197 0.3537 0.9276
vn 0.1252 0.2098 0.9697
vn -0.2375 0.4164 0.8776
vn -0.2543 0.2283 0.9398
vn -0.5712 0.3537 0.7406
vn -0.5972 0.2098 0.7742
vn -0.7885 0.4164 0.4526
vn -0.8444 0.2283 0.4847
vn -0.9276 0.3537 0.1197
vn -0.9697 0.2098 0.1252
vn -0.8776 0.4164 -0.2375
vn -0.9398 0.2282 -0.2543
vn -0.7406 0.3537 -0.5712
vn -0.7742 0.2098 -0.5972
vn -0.4526 0.4164 -0.7885
vn -0.4847 0.2283 -0.8444
vn -0.1197 0.3537 -0.9276
vn -0.1252 0.2098 -0.9697
vn 0.2375 0.4164 -0.8776
vn 0.2543 0.2283 -0.9398
vn 0.5712 0.3537 -0.7406
vn 0.5972 0.2098 -0.7742
vn 0.6102 0.0403 -0.7912
vn 0.8660 0.0536 -0.4971
vn 0.2608 0.0536 -0.9639
vn -0.1279 0.0403 -0.9909
vn -0.4971 0.0536 -0.8660
vn -0.7912 0.0403 -0.6102
vn -0.9639 0.0536 -0.2609
vn -0.9909 0.0403 0.1279
vn -0.8660 0.0536 0.4971
vn -0.6102 0.0403 0.7912
vn -0.2608 0.0536 0.9639
vn 0.1279 0.0403 0.9909
vn 0.4971 0.0536 0.8660
vn 0.7912 0.0403 0.6102
vn 0.9639 0.0536 0.2609
vn 0.9909 0.0403 -0.1279
usemtl Tree_Root
s 1
f 33/1/1 2/2/2 4/3/3 34/4/4
f 34/4/4 4/3/3 6/5/5 35/6/6
f 35/6/6 6/5/5 8/7/7 36/8/8
f 36/8/8 8/7/7 10/9/9 37/10/10
f 37/10/10 10/9/9 12/11/11 38/12/12
f 38/12/12 12/11/11 14/13/13 39/14/14
f 39/14/14 14/13/13 16/15/15 40/16/16
f 40/16/16 16/15/15 18/17/17 41/18/18
f 41/18/18 18/17/17 20/19/19 42/20/20
f 42/20/20 20/19/19 22/21/21 43/22/22
f 43/22/22 22/21/21 24/23/23 44/24/24
f 44/24/24 24/23/23 26/25/25 45/26/26
f 45/26/26 26/25/25 28/27/27 46/28/28
f 46/28/28 28/27/27 30/29/29 47/30/30
f 47/30/30 30/29/29 32/31/31 48/32/32
f 48/32/32 32/31/31 2/33/2 33/34/1
f 80/35/33 48/36/32 33/37/1 65/38/34
f 79/39/35 47/40/30 48/36/32 80/35/33
f 78/41/36 46/42/28 47/40/30 79/39/35
f 77/43/37 45/44/26 46/42/28 78/41/36
f 76/45/38 44/46/24 45/44/26 77/43/37
f 75/47/39 43/48/22 44/46/24 76/45/38
f 74/49/40 42/50/20 43/48/22 75/47/39
f 73/51/41 41/52/18 42/50/20 74/49/40
f 72/53/42 40/54/16 41/52/18 73/51/41
f 71/55/43 39/56/14 40/54/16 72/53/42
f 70/57/44 38/58/12 39/56/14 71/55/43
f 69/59/45 37/60/10 38/58/12 70/57/44
f 68/61/46 36/62/8 37/60/10 69/59/45
f 67/63/47 35/64/6 36/62/8 68/61/46
f 66/65/48 34/66/4 35/64/6 67/63/47
f 65/38/34 33/37/1 34/66/4 66/65/48
f 96/67/49 64/68/50 49/69/51 81/70/52
f 81/70/52 49/69/51 50/71/53 82/72/54
f 82/72/54 50/71/53 51/73/55 83/74/56
f 83/74/56 51/73/55 52/75/57 84/76/58
f 84/76/58 52/75/57 53/77/59 85/78/60
f 85/78/60 53/77/59 54/79/61 86/80/62
f 86/80/62 54/79/61 55/81/63 87/82/64
f 87/82/64 55/81/63 56/83/65 88/84/66
f 88/84/66 56/83/65 57/85/67 89/86/68
f 89/86/68 57/85/67 58/87/69 90/88/70
f 90/88/70 58/87/69 59/89/71 91/90/72
f 91/90/72 59/89/71 60/91/73 92/92/74
f 92/92/74 60/91/73 61/93/75 93/94/76
f 93/94/76 61/93/75 62/95/77 94/96/78
f 94/96/78 62/95/77 63/97/79 95/98/80
f 95/98/80 63/97/79 64/68/50 96/67/49
f 64/68/50 65/38/34 66/65/48 49/69/51
f 49/69/51 66/65/48 67/63/47 50/71/53
f 50/71/53 67/63/47 68/61/46 51/73/55
f 51/73/55 68/61/46 69/59/45 52/75/57
f 52/75/57 69/59/45 70/57/44 53/77/59
f 53/77/59 70/57/44 71/55/43 54/79/61
f 54/79/61 71/55/43 72/53/42 55/81/63
f 55/81/63 72/53/42 73/51/41 56/83/65
f 56/83/65 73/51/41 74/49/40 57/85/67
f 57/85/67 74/49/40 75/47/39 58/87/69
f 58/87/69 75/47/39 76/45/38 59/89/71
f 59/89/71 76/45/38 77/43/37 60/91/73
f 60/91/73 77/43/37 78/41/36 61/93/75
f 61/93/75 78/41/36 79/39/35 62/95/77
f 62/95/77 79/39/35 80/35/33 63/97/79
f 63/97/79 80/35/33 65/38/34 64/68/50
f 31/99/81 95/98/80 96/67/49 1/100/82
f 29/101/83 94/96/78 95/98/80 31/99/81
f 27/102/84 93/94/76 94/96/78 29/101/83
f 25/103/85 92/92/74 93/94/76 27/102/84
f 23/104/86 91/90/72 92/92/74 25/103/85
f 21/105/87 90/88/70 91/90/72 23/104/86
f 19/106/88 89/86/68 90/88/70 21/105/87
f 17/107/89 88/84/66 89/86/68 19/106/88
f 15/108/90 87/82/64 88/84/66 17/107/89
f 13/109/91 86/80/62 87/82/64 15/108/90
f 11/110/92 85/78/60 86/80/62 13/109/91
f 9/111/93 84/76/58 85/78/60 11/110/92
f 7/112/94 83/74/56 84/76/58 9/111/93
f 5/113/95 82/72/54 83/74/56 7/112/94
f 3/114/96 81/70/52 82/72/54 5/113/95
f 1/100/82 96/67/49 81/70/52 3/114/96
